<svg id="Layer_1" data-name="Layer 1" xmlns="http://www.w3.org/2000/svg" viewBox="0 0 148.5 80.45"><defs><style>.cls-1{fill:#00263e;}</style></defs><title>Artboard 1</title><path class="cls-1" d="M70.87,37.17c2.07.41,1.72,2.32,1.89,3.8h2.15V30.46H72.76c-.19,1.21.09,3.25-1.9,3.92a8.49,8.49,0,0,1-2.75.2,22.58,22.58,0,0,1-2.85,0c.06-2.49,0-5,0-7.55s.54-4.09,3-4.51a18.33,18.33,0,0,1,6.8.46c2,.81,2.25,3.11,2.32,5.19a18.63,18.63,0,0,0,2.16-.68V20.23H57.26a14.74,14.74,0,0,0,0,1.88c3.44,0,4,1.65,4,4.9v17.7c0,1.46-.09,2.71-.86,3.58a4,4,0,0,1-3.18,1.24V51.4h12.6V49.53c-3.26.11-4.23-1-4.52-4.08-.17-1.77-.13-6.41-.11-8.4a45.48,45.48,0,0,1,5.6.08Z"/><path class="cls-1" d="M111,41.17c-.25,5.81-1.52,8.51-7.92,7.67-5.15-.68-6.44-4.07-6.23-9.56.1-2.42.4-4.74,1.63-6.26s3.88-1.65,6.41-1.46,4.31.91,5.21,2.7S111.11,38.88,111,41.17Zm3.7-.8a13.35,13.35,0,0,0-1.7-8.2c-1.88-2.93-5.46-3.81-9-3.7-7,.26-10.61,4.7-10.92,11.6-.34,7.48,3.11,12.18,10.64,11.9a10.85,10.85,0,0,0,7.89-3.37c2.18-2.54,2.72-4.86,3-8.24Z"/><path class="cls-1" d="M117.59,51.37c4.64-.13,10,1.75,13.35-1.29a6.53,6.53,0,0,0,2-5.7c-.49-4.27-5.15-5.59-8.46-7.07-1.56-.69-4-1.84-3.52-4.14.41-2.06,3.45-2.22,5.72-1.94,2.52.31,3.2,1.85,3.23,4.53l1.68-.5c.41-.12.43-.07.48-.23V29c-2.59.15-5-.44-7.54-.25s-4.5.85-5.75,2.23a5.43,5.43,0,0,0-.68,6.07c.87,1.65,2.5,2.62,4.42,3.49a32.23,32.23,0,0,1,5.35,2.6c2.41,1.74,2.78,6.1-2.36,6.3-2.19.09-4.62-.18-5.43-2.46a11.61,11.61,0,0,1-.35-3.62h-2.15v8Z"/><path class="cls-1" d="M148.48,28.64c-.55.12-.89.27-1.54.36a49,49,0,0,1-5.28.08V23.17a20.78,20.78,0,0,0-2.23-.08c-.21,3.19-1.31,6.3-5,6.6v1.9h3.5c.07,1.21,0,2.64,0,3.88V47c0,2.31,1.65,3.61,3.41,4.26a8.92,8.92,0,0,0,3.36.47,12.41,12.41,0,0,0,3.31-.51,13.55,13.55,0,0,0,.49-2.6c-.51,0-.92.1-1.44.1h-1.44c-4.33-.21-4-1.77-4-5,0-1-.06-11.37,0-12h6l.79-2.89Z"/><path class="cls-1" d="M93.41,28.5a8.35,8.35,0,0,0-8.3,6.21v.17c-.06.17,0,.09-.08.14-.13-.27,0-5.68,0-6.49-.24.08-.47.23-.72.34a12.07,12.07,0,0,1-2.34.76c-1.49.34-2.68.37-3.51.55V32c2.28.23,3.31-.25,3.37,2.72V46.88c0,2.92-2.32,2.33-3.42,2.66v1.85H89.63V49.56c-.71-.16-2,.11-3-.55a3,3,0,0,1-1-2.52,43.9,43.9,0,0,1,.08-6.88c.35-4.12,1.21-6.75,5.41-7H92.8l.74-4.08Z"/><path class="cls-1" d="M1,43.52c.34-.06,11.67-5.18,12.83-5.71a12.31,12.31,0,0,0,1.8-.85c-.36-.15-4.79-.46-5.61-.54A43.36,43.36,0,0,0,4.44,36,4.78,4.78,0,0,0,.93,38.58c-.7,1.37-.7,3.91.1,4.94Z"/><path class="cls-1" d="M26.72,45c-.06,2.67.11,6,.11,8.83a9,9,0,0,0,.25,2.73c1.35,4.12,6.48,3.6,7.73,2.32-.13-.37-5.62-9.7-6.05-10.47-.11-.19-1.84-3.27-2-3.41Z"/><path class="cls-1" d="M34,37c.31.18,4.21,1.33,4.93,1.56,1.16.37,3.88,1.25,5,1.53,3.35.87,6.74-2,5.83-6.47-.4,0-3.34.69-4,.82S34.25,36.78,34,37Z"/><path class="cls-1" d="M33.47,45.74c-.84-.61-2.46-1.85-3.25-2.34.05.25.89,2,1.06,2.36.36.83.7,1.53,1.08,2.35.65,1.42,1.52,3.42,2.17,4.71a4.7,4.7,0,0,0,4.34,2.57,5.44,5.44,0,0,0,4.38-2.51c-.11-.16,0-.08-.22-.2l-.2-.15-.4-.29-5.69-4.11C35.64,47.33,34.55,46.51,33.47,45.74Z"/><path class="cls-1" d="M31.67,29.88c.36-.1,6-3.55,6.65-3.91s1.47-.83,2.15-1.28a4.91,4.91,0,0,0,1.4-6.81h0a5,5,0,0,0-1.18-1.24A3.15,3.15,0,0,0,39.62,16l-4,6.9c-.33.58-3.85,6.59-4,7Z"/><path class="cls-1" d="M11.21,47l.32-.36,1.32-1.49c.61-.74,1.41-1.49,2-2.23.38-.46,1.83-2,2-2.28-.47.09-4.33,1.43-5.09,1.7-1,.37-4.3,1.4-5,1.72A4.8,4.8,0,0,0,4.48,50.4h0a1.92,1.92,0,0,0,.18.35c.28.55,1,1.69,1.52,1.79l5-5.58Z"/><path class="cls-1" d="M22.28,11.17H21l-.15.05h-.14l-.85.25a37.2,37.2,0,0,0,1.23,3.88l3.42,10.44a1.65,1.65,0,0,0,.16.49l.18.42h0c.68-3,1.22-6.24,1.85-9.33A4.82,4.82,0,0,0,25.92,13a4.42,4.42,0,0,0-1.52-1.19A7.45,7.45,0,0,0,22.28,11.17Z"/><path class="cls-1" d="M28.53,27.61a22.25,22.25,0,0,0,1.46-2l4.35-6.15a4.74,4.74,0,0,0-.93-6.64h0a6.65,6.65,0,0,0-.56-.36,4.83,4.83,0,0,0-2.68-.82l-1.64,16Z"/><path class="cls-1" d="M33.54,33.17c.8,0,2-.23,2.81-.32,1.39-.16,7.41-.78,8.28-1.08,4.08-1.4,3.62-6.49,1.92-8.07a16.22,16.22,0,0,0-1.67,1.18Z"/><path class="cls-1" d="M19.44,43.42c-.29.18-2.33,2.13-2.81,2.55-1.42,1.25-3.22,3-4.62,4.26a4.78,4.78,0,0,0-1.26,5.22,5.65,5.65,0,0,0,3.78,3.28Z"/><path class="cls-1" d="M23.2,61h1.17l.27-.08c0-.42-.33-3.35-.41-4-.14-1.31-.29-2.66-.43-4s-.28-2.69-.43-4a31.88,31.88,0,0,0-.49-4c-.18.57-1.55,3.64-1.89,4.44-.64,1.47-1.24,2.92-1.88,4.37a5.3,5.3,0,0,0-.6,2.56,4.72,4.72,0,0,0,2.39,3.92,7.82,7.82,0,0,0,2.3.78Z"/><path class="cls-1" d="M10.31,15.7c.13.26,2.56,2.83,3,3.39L15,21c.78.94,1.91,2.05,2.69,3l2,2.23a4.23,4.23,0,0,1,.34.4c.12.13.23.22.34.35a4.94,4.94,0,0,0,.67.7l-1.8-8a18.89,18.89,0,0,0-.63-2.57A4.66,4.66,0,0,0,15,14.13a5.37,5.37,0,0,0-2.83.32,4.78,4.78,0,0,0-1.94,1.28Z"/><path class="cls-1" d="M14.29,28.24l1.82.81a13.21,13.21,0,0,0,1.89.83,22.42,22.42,0,0,0-1.52-2.1c-1.5-2-3-4.06-4.51-6a4.73,4.73,0,0,0-5-1.72,5.59,5.59,0,0,0-2.27,1.2c-.4.42-1.36,1.42-1.37,2.12l11,4.86Z"/><path class="cls-1" d="M32.77,40.57c.67.66,1.26,1.1,1.89,1.7.3.28.6.51.94.83,1.35,1.26,3.32,2.83,4.71,4.12A4.79,4.79,0,0,0,45.6,48c1.42-.68,3-2.81,2.89-4.13Z"/><path class="cls-1" d="M0,32.17v1H16.08c-.14-.19-3.67-2.12-4.17-2.4L7.72,28.45a5.34,5.34,0,0,0-2.45-.86A4.86,4.86,0,0,0,.36,30.88C.23,31.23.1,32,0,32.17Z"/></svg>