<svg id="Layer_1" data-name="Layer 1" xmlns="http://www.w3.org/2000/svg" viewBox="0 0 148.5 80.45"><defs><style>.cls-1{fill:#3f2b56;}.cls-2{fill:#00b2e3;}</style></defs><title>Artboard 1</title><g id="e0eb90e7-a6c5-474d-b681-06161c49ea00"><g id="f981f450-ac8f-488e-a2d0-01f391deaf96"><path class="cls-1" d="M53.89,27.29l2.56,1.83a.35.35,0,0,1,.1.36l-1,3a.36.36,0,0,0,.21.42.33.33,0,0,0,.31-.06L58.64,31a.29.29,0,0,1,.41,0l2.56,1.82a.39.39,0,0,0,.47,0c.05-.11.1-.21.05-.31l-1-3a.3.3,0,0,1,.1-.36l2.56-1.88a.37.37,0,0,0-.21-.63H60.46a.34.34,0,0,1-.31-.21l-1-3a.35.35,0,0,0-.42-.21c-.1.05-.21.11-.21.21l-1,3a.29.29,0,0,1-.31.21H54.1a.3.3,0,0,0-.32.31A.45.45,0,0,0,53.89,27.29Z"/><path class="cls-1" d="M97.24,58.85a.45.45,0,0,1-.52,0,3.23,3.23,0,0,0-1.2-.26,2.42,2.42,0,0,0-1.46.42,3.08,3.08,0,0,1-3.13,0A2.93,2.93,0,0,0,88,59a2.88,2.88,0,0,1-1.57.42A3.19,3.19,0,0,1,84.88,59a3,3,0,0,0-3,0,3.08,3.08,0,0,1-3.13,0,3,3,0,0,0-3,0,3.08,3.08,0,0,1-3.13,0,3,3,0,0,0-3,0,3.08,3.08,0,0,1-3.13,0,3,3,0,0,0-3,0,2.74,2.74,0,0,1-1.56.42h0A3.2,3.2,0,0,1,60.46,59a2.93,2.93,0,0,0-2.92,0,2.84,2.84,0,0,1-1.56.42h0A2.75,2.75,0,0,1,54.41,59a3,3,0,0,0-3,0,2.88,2.88,0,0,1-1.57.42h0A3.19,3.19,0,0,1,48.31,59a2.93,2.93,0,0,0-2.92,0,2.88,2.88,0,0,1-1.57.42h0a3.09,3.09,0,0,1-.94-.16.83.83,0,0,1-.47-.47L40.9,52.91a.37.37,0,0,1,.26-.47h.1l65.89-2a.3.3,0,0,1,.31.31c0,.11,0,.16-.1.21A40.74,40.74,0,0,1,97.24,58.85Z"/><path class="cls-1" d="M144.66,75.13h-.16v-.21h.58v.21h-.16v.73h-.21Z"/><path class="cls-1" d="M145.29,74.92h.26l.1.47.11-.47H146v.94h-.21v-.47l-.11.47h-.15l-.11-.47v.47h-.21Z"/><path class="cls-1" d="M.52,75.29l1-1.57a2.79,2.79,0,0,0,1.41.42.58.58,0,0,0,.68-.58v-.15c0-.94-2.19-1.57-2.19-3.39a2.48,2.48,0,0,1,2.71-2.66,5,5,0,0,1,2.14.47l-1.1,1.66a2.12,2.12,0,0,0-1.09-.31.63.63,0,0,0-.63.58v.1c0,.94,2.19,1.51,2.19,3.44A2.39,2.39,0,0,1,3,75.91,5.19,5.19,0,0,1,.52,75.29Z"/><path class="cls-1" d="M8.5,72.89l.73-5.38h2l-.73,5.38c-.16.88,0,1.2.57,1.2.42,0,.63-.11.78-1l.78-5.53h2l-.79,5.64c-.26,1.87-.93,2.76-2.81,2.76C8.66,75.86,8.24,74.76,8.5,72.89Z"/><path class="cls-1" d="M17.68,67.46h1.93c2.2,0,2.87,1,2.87,2.3a4.63,4.63,0,0,1-.05.83c-.26,1.72-.94,2.87-3,2.87h-.53l-.31,2.29h-2Zm1.73,4.38c.62,0,.88-.26,1-1.2,0-.15.05-.36.05-.52,0-.63-.26-.83-.89-.83h-.15L19,71.89h.37Z"/><path class="cls-1" d="M25.67,67.46h4.17l-.26,1.88H27.39l-.21,1.41h2L29,72.47h-2L26.71,74H29l-.26,1.77H24.47Z"/><path class="cls-1" d="M34.33,73.25h-.42l-.37,2.5H31.61l1.15-8.29h2c2,0,2.6,1,2.6,2.3a4.09,4.09,0,0,1,0,.78A2.74,2.74,0,0,1,36,72.78l.52,3H34.64Zm.15-1.56c.58,0,.84-.26.94-1.15,0-.16,0-.31,0-.47,0-.58-.2-.78-.83-.78h-.16l-.36,2.45Z"/><path class="cls-1" d="M110.13,73.15a9.91,9.91,0,0,1,.15-1.72c.37-2.46.94-4.07,3.29-4.07a5.31,5.31,0,0,1,1.82.31l-.93,1.77a3.26,3.26,0,0,0-.94-.21c-.63,0-.94.21-1.2,2.3a9.64,9.64,0,0,0-.11,1.3c0,.89.31,1.1.89,1.1a2,2,0,0,0,.78-.16l.47,1.72a3.67,3.67,0,0,1-1.51.26C110.7,75.86,110.13,74.76,110.13,73.15Z"/><path class="cls-1" d="M119.67,73.25h-.42l-.36,2.5H117l1.15-8.29h2c2,0,2.61,1,2.61,2.3a4.09,4.09,0,0,1,0,.78,2.75,2.75,0,0,1-1.36,2.24l.52,3H120Zm.16-1.56c.57,0,.83-.26.94-1.15,0-.16,0-.31,0-.47,0-.58-.21-.78-.84-.78h-.15l-.37,2.45Z"/><path class="cls-1" d="M127.5,67.41h1.93l.88,8.34h-2l-.05-1h-1.72l-.37,1h-1.88Zm.62,5.79L128,70.75l-.89,2.45Z"/><path class="cls-1" d="M134.17,67.46h4.18l-.26,1.88H135.9L135.64,71h2.08l-.26,1.77h-2.09l-.41,3H133Z"/><path class="cls-1" d="M142.05,69.34h-1.51l.26-1.88h5.06l-.26,1.88h-1.51l-.89,6.41h-2Z"/><path class="cls-1" d="M80.49,66.47A1.3,1.3,0,0,0,81.59,65a1.26,1.26,0,0,0-1.46-1.1A1.29,1.29,0,0,0,79,65.16,1.4,1.4,0,0,0,80.49,66.47Z"/><path class="cls-2" d="M106.26,70.12a.35.35,0,0,0-.36.31,10,10,0,0,1-.42,1.46c-.21.47-.47.89-.83.89-.89,0,.21-4.85-1.93-4.85-1.52,0-2.19,1.67-2.61,2.92,0-1-.21-2.92-1.57-2.92s-2.24,2-2.66,3v-2.2c0-.57-.15-.88-.83-.88H93.22c-.15,0-.21.1-.21.26s.11.52.11.78v2a9.06,9.06,0,0,1-.47,1.2c-.26.52-.63,1-1,1-.58,0-.53-.84-.53-1.26V68.76c0-.57-.15-.88-.78-.88H88.48c-.21,0-.27.1-.27.26s.11.52.11.78v2.92c-.21.42-.68,1.25-1.2,1.25s-.52-.83-.52-1.25V68.71c0-.57-.16-.88-.84-.88H84c-.16,0-.21.1-.21.26s.11.52.11.78v2a9.37,9.37,0,0,1-.47,1.2c-.27.52-.63.89-1,.89-.57,0-.52-.83-.52-1.2V68.87c0-.31,0-.94-.83-.94H79.24c-.15,0-.21.1-.21.31s.11.52.11.79v2a5.29,5.29,0,0,1-.26.83c-.21.47-.47.89-.84.89-.88,0,.21-4.85-1.93-4.85-1.51,0-2.19,1.67-2.61,2.92,0-1-.2-2.92-1.56-2.92s-2.24,2-2.66,3v-2.2c0-.57-.16-.88-.84-.88H66.62c-.16,0-.21.1-.21.26s.1.52.1.78v2c-.05.1-.05.2-.1.31a3.33,3.33,0,0,1-3,2.5,1.7,1.7,0,0,1-1.2-.52c1.2-.47,3.28-1.56,3.28-3.08s-1.77-2.29-3-2.29a3.91,3.91,0,0,0-3.81,3.91v.1c-.31.63-.68,1.2-1.15,1.2-.63,0-.52-.83-.52-1.2v-3a1.19,1.19,0,0,0-1.31-1c-.62.05-1.3.15-1.93.26,0-.58-.31-1.41-1.14-1.41a1.52,1.52,0,0,0-1.52,1.72,2.11,2.11,0,0,0,1.15,1.83l-.05.73-.1.47a1.94,1.94,0,0,0-.11.36,3.38,3.38,0,0,1-1.46,1.62,5.34,5.34,0,0,0,.37-1.77,3.53,3.53,0,0,0-3.29-3.76,2.73,2.73,0,0,0-1.93.83v-.67c0-.58-.16-.89-.84-.89H43c-.16,0-.21.1-.21.26s.1.52.1.78V80c0,.37.32.47.63.47h1.51a.66.66,0,0,0,.63-.57v-5a2.89,2.89,0,0,0,2.19.94,5.51,5.51,0,0,0,4.9-3.39,8.6,8.6,0,0,0,.58-1.93,2.6,2.6,0,0,0,.62,0c.26,0,.26.21.26.42v1.77c0,2,.84,2.92,1.93,3a3.62,3.62,0,0,0,3-2.08,3.6,3.6,0,0,0,3.28,2.08,4.86,4.86,0,0,0,4.13-2.5v2c0,.37.31.47.62.47H68.7c.58,0,.63-.26.63-.52V73.41c0-.32.84-2,1.15-2a.33.33,0,0,1,.31.26v3.6c0,.36.31.46.63.46H73c.32,0,.63-.15.63-.46V73.56c0-.36.57-2.08.94-2.08a.13.13,0,0,1,.15.15c.32,1.2.16,4.18,1.93,4.18,1.05,0,2-1,2.61-2.25.16,1.1.68,2.25,1.93,2.25a3.11,3.11,0,0,0,2.56-1.67,2.47,2.47,0,0,0,.26-.47c.16,1.09.68,2.14,1.93,2.14a3.21,3.21,0,0,0,2.61-1.72,2,2,0,0,0,1.88,1.72,3.33,3.33,0,0,0,2.81-2v1.52c0,.36.32.46.63.46h1.51c.58,0,.63-.26.63-.52V73.46c0-.31.83-2,1.15-2a.33.33,0,0,1,.31.26v3.6c0,.36.31.47.62.47h1.57c.31,0,.63-.16.63-.47V73.62c0-.37.57-2.09.93-2.09a.14.14,0,0,1,.16.16c.31,1.2.16,4.17,1.93,4.17,1.41,0,2.61-1.93,3.18-3.6a6.92,6.92,0,0,0,.37-1.83A.84.84,0,0,0,106.26,70.12ZM46.69,73.56a1.11,1.11,0,0,1-1-1V70.49a1.35,1.35,0,0,1,1.09-.58c.84,0,1.2,1,1.2,1.72S47.63,73.56,46.69,73.56Zm14.92-1.14a3.55,3.55,0,0,1-.26-1.26c0-.31.36-1.67.73-1.67s.57.74.57,1C62.71,71.06,62.39,72.47,61.61,72.42Z"/><path class="cls-2" d="M110.91,45.5l-14.3.36a3.29,3.29,0,0,1-2.76-1.3l-4.64-6a6.36,6.36,0,0,0-5.32-2.45l-11,.42L74.6,38.3a2.27,2.27,0,0,1,.63,1.88l-.63,4.48a2.46,2.46,0,0,1-2.35,2.14L44.6,48a.34.34,0,0,1-.31-.21L42.2,38.46a.75.75,0,0,0-.21-.37.19.19,0,0,1-.05-.26.58.58,0,0,0-1-.52.56.56,0,0,0,.16.73c.1.05.1.21,0,.31a.5.5,0,0,0,0,.26s-.06.11-.11.16c-.47.1-1.09.52-1.77.68-.11,0-.21-.06-.26-.16h0c0-.1-.11-.1-.21-.1-.42,0-1.36.67-2.3.57a.16.16,0,0,1-.15-.16.26.26,0,0,0-.32-.15c-.88.21-2.08.73-2.45.78a0,0,0,0,0-.05.05h0c.1.21.73,1.57.89,1.83a.18.18,0,0,1,.05.15l.1,2.3.05,0c.37,0,1.1-.52,2-.73a.25.25,0,0,1,.31.16.16.16,0,0,0,.16.15c.94.06,1.82-.57,2.29-.57.11,0,.16.05.21.16a.29.29,0,0,0,.26.15c.73-.15,1.57-.62,2.09-.73,0,0,.15,0,.15.11l1,4.54a.29.29,0,0,1-.21.36h0l-2.77.1a.4.4,0,0,0-.36.42v.11l.52,2a.45.45,0,0,0,.42.31l68.34-2.13a.27.27,0,0,0,.2-.11c.73-.89,1.41-1.88,2-2.82a.28.28,0,0,0-.11-.41C111,45.5,111,45.5,110.91,45.5ZM36.73,42.63l-.27,0a.18.18,0,0,1-.15,0l-.05-.05a.19.19,0,0,0-.16-.06l-.26.06c-.05,0-.05.05-.05.1v.11c0,.05,0,.1-.06.1l-.2,0c-.06,0-.16,0-.16-.1h0l-.26-2c0-.05,0-.1,0-.1l.31-.1a.19.19,0,0,1,.16.05l1.1,1.72c.1.1.05.16,0,.21Zm1.87,0-.26.1c-.05,0-.1,0-.15-.1l-.53-1.36c0-.05-.1-.1-.15-.1l-.11,0s-.1,0-.15-.1l-.11-.27c0-.05,0-.1.06-.1h0l1-.31c.05,0,.1,0,.15.1l.11.26c0,.05,0,.11-.05.11h0l-.16.05c-.05,0-.11,0-.05.1h0l.52,1.36c-.05.1-.05.16-.11.21Zm2.82-.52-.26.1s-.1,0-.1-.05l-.32-.31c0-.06-.05-.06-.1,0l0,0v.42s-.06.1-.06.1l-.2,0c-.06,0-.16,0-.16-.1v0l0-1s0,0,0-.1l-.63-.68a.09.09,0,0,1,0-.15l.06-.06.26-.1s.1,0,.1.05l.21.21s0,0,0,0v-.37a.17.17,0,0,1,.05-.1l.21-.05c.05,0,.16,0,.16.1v0l0,1c0,.05,0,.05.05.1l.73.78a.19.19,0,0,1,0,.11Zm46.69,4.17-8.82.26a1.54,1.54,0,0,1-1.56-1.46v-.16L78,40.54a1.53,1.53,0,0,1,1.46-1.41L85,39a1.52,1.52,0,0,1,1.31.68l3,4.33a1.46,1.46,0,0,1-.42,2.08,1.66,1.66,0,0,1-.78.21Z"/><path class="cls-1" d="M35.73,41.69s0,0,0,0l0,.47a.05.05,0,0,0,.06.05h0l.15-.05v0h0Z"/><path class="cls-1" d="M0,53.84l1-2.76,9,3.34,1.1-3,2.14,1.62-1.78,5Z"/><path class="cls-1" d="M6.16,39.81l1.46-2.45,12.2,3.55-1.56,2.55L16.85,43l-1.36,2.3,1.1,1-1.41,2.4Zm8.39,2.51-3.49-1.15,2.71,2.5Z"/><path class="cls-1" d="M13.3,29.27l1.93-2.14,3.5,3.13-2.25-4.59,1.94-2.19,2.19,5,7.25,2.82-2,2.29L21.75,32l.79,1.72,1.77,1.56-1.93,2.14Z"/><path class="cls-1" d="M23.74,18.63l5-3.91,1.73,2.19-2.72,2.14L29,20.67l2.45-1.93,1.56,2-2.45,1.93L32,24.42l2.76-2.14,1.62,2.09L31.3,28.23Z"/><path class="cls-1" d="M41.68,7.15,44.29,6l7.83,10-2.72,1.2L48.52,16l-2.46,1.1.32,1.46-2.56,1.15Zm5.37,6.94-2.13-3,.73,3.6Z"/><path class="cls-1" d="M56.6,13.94a4.2,4.2,0,0,1-1.67-3L53.11,3,56,2.36l1.77,7.82c.31,1.3.68,1.57,1.46,1.41s1-.57.73-1.88L58.17,1.89l2.76-.63,1.83,7.93c.31,1.3.47,2.5-.16,3.44a4.66,4.66,0,0,1-2.82,1.62A4.91,4.91,0,0,1,56.6,13.94Z"/><path class="cls-1" d="M68.08,11.9l1-2.4a5,5,0,0,0,2.14.47c.73-.05,1.1-.26,1.1-1C72.3,7.42,68.13,7,68,3.71,67.92,1.05,69.64.06,71.78,0a7.3,7.3,0,0,1,3,.52L73.61,3a3.68,3.68,0,0,0-1.67-.31c-.58,0-1,.31-.94.89,0,1.51,4.17,1.93,4.33,5.27.1,2.45-1.41,3.54-3.81,3.65A6.41,6.41,0,0,1,68.08,11.9Z"/><path class="cls-1" d="M82.63,3.29,80.34,3,80.7.27l7.51,1L87.85,4l-2.3-.31-1.2,9.39-2.92-.37Z"/><path class="cls-1" d="M94.68,2.77l2.82.84L94.11,15.35l-2.82-.84Z"/><path class="cls-1" d="M104.39,6l2.71,1.3-.16,5.48,2.14-4.49,2.45,1.15-5.27,11.06-2.34-1.15.1-6.21-2.45,5.11-2.45-1.14Z"/><path class="cls-1" d="M123.85,17.64,126,19.47l-5.59,11.42L118.21,29l.68-1.3-2-1.72-1.19.88L113.52,25ZM120,25.52l1.73-3.24-2.92,2.25Z"/><path class="cls-1" d="M132.92,26.4l1.88,2.25-7.41,6.1,2,2.45L127,38.4l-3.5-4.17Z"/><path class="cls-1" d="M140.54,36.58l3.18,5.47-2.4,1.41-1.72-3-1.77,1,1.56,2.72L137.2,45.5l-1.56-2.71-2,1.14,1.72,3-2.29,1.3-3.18-5.53Z"/><path class="cls-1" d="M135.64,51.86l2.6.26a5,5,0,0,0,.21,2.14c.26.68.58.94,1.25.73,1.46-.52.63-4.64,3.66-5.74,2.5-.94,4,.42,4.69,2.4a6.48,6.48,0,0,1,.42,3l-2.77-.32a3.51,3.51,0,0,0-.21-1.67c-.2-.52-.57-.83-1.14-.62-1.41.52-.52,4.59-3.71,5.74-2.29.83-3.81-.21-4.64-2.51A7.43,7.43,0,0,1,135.64,51.86Z"/></g></g></svg>