<svg id="Layer_1" data-name="Layer 1" xmlns="http://www.w3.org/2000/svg" viewBox="0 0 148.5 80.45"><defs><style>.cls-1{fill:#77bdb8;}.cls-2{fill:#00263a;}</style></defs><title>Artboard 1</title><path class="cls-1" d="M20.36,55.42c.14-.5.32-1,.5-1.46a44.33,44.33,0,0,1,3.8-8.43,46,46,0,0,1,2.63-3.86,29.87,29.87,0,0,1,3-3.36c.21-.18.38-.38.59-.56l-.26-1.9c-.79,1-1.58,1.93-2.34,2.93a119.41,119.41,0,0,0-9,13.6c-.7,1.2-1.35,2.43-2,3.66Z"/><path class="cls-1" d="M23.63,41.47c1.37-1.9,2.75-3.8,4.22-5.59a10.42,10.42,0,0,0-1.17.79A19.27,19.27,0,0,0,25,38.25c-.47.53-.94,1-1.37,1.61a44.52,44.52,0,0,0-5.36,9.51c-.17.44-.38.9-.55,1.37C19.54,47.58,21.5,44.48,23.63,41.47Z"/><path class="cls-1" d="M30.89,53.26a2.37,2.37,0,0,0,1.84-2.59l-.64-4.47a7,7,0,0,0-.85.47,17.54,17.54,0,0,0-1.67,1.14A33.26,33.26,0,0,0,24,53.55c-.36.44-.68.88-1,1.34Z"/><path class="cls-1" d="M8.19,56.06a2.35,2.35,0,0,0,2.6,1.35l3.1-.64c.18-.65.38-1.32.59-2A64.57,64.57,0,0,1,18,45.89a38.88,38.88,0,0,1,4.83-7.76A16.44,16.44,0,0,1,26,35a20.15,20.15,0,0,1,3.78-2.08l.29-.12-.67-5.14a2.34,2.34,0,0,0-2.64-2,2.72,2.72,0,0,0-.49.13L1.52,35a2.31,2.31,0,0,0-1.38,3,1.22,1.22,0,0,0,.07.17Z"/><path class="cls-1" d="M23.69,50.92a.13.13,0,0,1-.06.11,39.92,39.92,0,0,1,2.72-3,23.24,23.24,0,0,1,3.31-2.72,17.11,17.11,0,0,1,2.13-1.2l-.67-4.49-.55.55c-.73.79-1.44,1.61-2.08,2.43a43,43,0,0,0-2.69,4A42.31,42.31,0,0,0,23.69,50.92Z"/><path class="cls-2" d="M45,35.67v1.7H42.56v7.49H40.42V37.4H39.25V35.67h1.17V35c0-2,1-3,2.87-3a6.55,6.55,0,0,1,1.71.19V34a3.6,3.6,0,0,0-1.26-.23c-.82,0-1.23.44-1.23,1.4v.55Z"/><path class="cls-2" d="M49.4,44.89H47.27V35.56H49.4v2.11a3.32,3.32,0,0,1,3.31-2.28v2.28h-.12c-1.87,0-3.19,1.23-3.19,3.68v3.54Z"/><path class="cls-2" d="M58.91,43.34a3.3,3.3,0,0,0,2.51-1.11l1.26,1.11a4.75,4.75,0,0,1-3.8,1.76,4.68,4.68,0,0,1-4.8-4.55v-.31a4.63,4.63,0,0,1,4.39-4.87h.18c3,0,4.47,2.34,4.47,5v.58H56.25A2.58,2.58,0,0,0,58.91,43.34ZM61,39.57a2.44,2.44,0,0,0-2.37-2.46,2.53,2.53,0,0,0-2.43,2.46Z"/><path class="cls-2" d="M68.47,45.07a6.42,6.42,0,0,1-3.94-1.4l1-1.46a5.13,5.13,0,0,0,3,1.14c.91,0,1.46-.38,1.46-1h0c0-.73-1-1-2.07-1.32C66.54,40.67,65,40,65,38.25h0c0-1.75,1.47-2.83,3.31-2.83a6.46,6.46,0,0,1,3.42,1l-.85,1.52a5.26,5.26,0,0,0-2.63-.88c-.82,0-1.32.38-1.32.94h0c0,.67,1,1,2.11,1.31,1.34.41,2.9,1.06,2.9,2.72h0C71.93,44.07,70.4,45.07,68.47,45.07Z"/><path class="cls-2" d="M76.22,44.89H74.09V32h2.13v5a3.39,3.39,0,0,1,2.93-1.63c2.11,0,3.3,1.4,3.3,3.59v5.94H80.32V39.57c0-1.46-.73-2.28-2-2.28a2.08,2.08,0,0,0-2.12,2,2.44,2.44,0,0,0,0,.27Z"/><path class="cls-2" d="M84.91,37.84l2.4-2c.91-.73,1.26-1.14,1.26-1.72a.88.88,0,0,0-.81-.95h-.19c-.55,0-.93.32-1.46,1L85,33.28a3,3,0,0,1,2.69-1.49,2.23,2.23,0,0,1,2.47,2,2.45,2.45,0,0,1,0,.27h0c0,1.2-.62,1.81-1.91,2.81l-1.17.9h3.16V39.1H84.94V37.84Z"/><path class="cls-2" d="M99.62,44.89V43.34a3.77,3.77,0,0,1-3.18,1.76c-2.2,0-4.33-1.76-4.33-4.86s2.1-4.85,4.33-4.85A3.89,3.89,0,0,1,99.62,37V32h2.14v12.9ZM97,37.23A2.75,2.75,0,0,0,94.3,40a1.34,1.34,0,0,0,0,.2,2.71,2.71,0,1,0,5.38.66,2.43,2.43,0,0,0,0-.66,2.78,2.78,0,0,0-2.55-3Z"/><path class="cls-2" d="M108.78,43.34a3.3,3.3,0,0,0,2.51-1.11l1.26,1.11a4.86,4.86,0,0,1-8.6-2.79v-.31a4.63,4.63,0,0,1,4.39-4.87h.18c3,0,4.47,2.34,4.47,5v.58h-6.87A2.61,2.61,0,0,0,108.78,43.34Zm2.08-3.77a2.44,2.44,0,0,0-2.37-2.46,2.53,2.53,0,0,0-2.43,2.46Z"/><path class="cls-2" d="M118.31,45.07a6.42,6.42,0,0,1-3.94-1.4l1-1.46a5.15,5.15,0,0,0,3,1.14c.91,0,1.47-.38,1.47-1h0c0-.73-1-1-2.08-1.32-1.38-.38-2.93-1-2.93-2.75h0c0-1.75,1.47-2.83,3.34-2.83a6.46,6.46,0,0,1,3.42,1L120.74,38a5.26,5.26,0,0,0-2.63-.88c-.82,0-1.32.38-1.32.94h0c0,.67,1,1,2.11,1.31,1.35.41,2.9,1.06,2.9,2.72h0C121.8,44.07,120.27,45.07,118.31,45.07Z"/><path class="cls-2" d="M124,34.13v-2h2.28v2Zm.09,10.76V35.56h2.13v9.33Z"/><path class="cls-2" d="M132.79,47.73a7.86,7.86,0,0,1-4.15-1.06l.79-1.61a6.15,6.15,0,0,0,3.3,1c1.91,0,3-1,3-2.86v-.73a4,4,0,0,1-3.28,1.72,4.19,4.19,0,0,1-4.24-4.13,2.25,2.25,0,0,1,0-.26,4.2,4.2,0,0,1,4-4.38h.22A4.07,4.07,0,0,1,135.73,37V35.56h2.13V43C137.82,46.27,136,47.73,132.79,47.73ZM133,37.17a2.53,2.53,0,0,0-2.66,2.38v.19a2.56,2.56,0,0,0,2.51,2.61H133a2.59,2.59,0,1,0,0-5.18Z"/><path class="cls-2" d="M142.27,44.89h-2.14V35.56h2.14V37a3.39,3.39,0,0,1,2.92-1.63c2.11,0,3.31,1.4,3.31,3.59v5.94h-2.14V39.57c0-1.46-.73-2.28-2-2.28a2.08,2.08,0,0,0-2.12,2,2.44,2.44,0,0,0,0,.27Z"/></svg>