<svg id="Layer_1" data-name="Layer 1" xmlns="http://www.w3.org/2000/svg" viewBox="0 0 148.5 80.45"><defs><style>.cls-1{fill:#2a6ebb;}</style></defs><title>Artboard 1</title><g id="HomeAway_" data-name="HomeAway "><path id="H" class="cls-1" d="M2.68,26.79v8.69H12.73V26.79h2.72V47.54H12.73V37.82h-10v9.72H0V26.79Z"/><path id="o" class="cls-1" d="M32.76,40c0,5.5-3.82,7.9-7.42,7.9-4,0-7.15-3-7.15-7.65,0-5,3.27-7.92,7.4-7.92C29.87,32.31,32.76,35.38,32.76,40Zm-11.82.15c0,3.26,1.88,5.72,4.53,5.72S30,43.36,30,40.06c0-2.53-1.26-5.68-4.46-5.68s-4.6,2.92-4.6,5.74Z"/><path id="m" class="cls-1" d="M35.46,36.68c0-1.54,0-2.8-.12-4h2.37l.12,2.4h.09a5.11,5.11,0,0,1,4.69-2.7,4.39,4.39,0,0,1,4.23,3h.06a6.21,6.21,0,0,1,1.67-2,5,5,0,0,1,3.29-1c2,0,4.9,1.29,4.9,6.47v8.77H54.1v-8.5c0-2.86-1.05-4.59-3.24-4.59A3.5,3.5,0,0,0,47.66,37a4.57,4.57,0,0,0-.21,1.38v9.18H44.8V38.63c0-2.37-1-4.1-3.12-4.1a4,4,0,0,0-3.57,4v9H35.46Z"/><path id="e" class="cls-1" d="M62,40.47c.07,3.73,2.45,5.27,5.22,5.27A9.39,9.39,0,0,0,71.44,45l.46,2a12,12,0,0,1-5,1c-4.68,0-7.48-3.1-7.48-7.68s2.71-8.2,7.14-8.2c5,0,6.29,4.36,6.29,7.16,0,.57-.07,1-.09,1.27H62Zm8.1-2c0-1.76-.71-4.49-3.83-4.49-2.8,0-4,2.57-4.24,4.49Z"/><path id="A" class="cls-1" d="M79,40.88l-2.2,6.66H74l7.19-21.16h3.3l7.23,21.16H88.79l-2.26-6.66Zm7-2.12-2.07-6.1c-.48-1.38-.78-2.64-1.1-3.87h-.07c-.31,1.26-.66,2.59-1.06,3.84l-2.08,6.13Z"/><path id="w" class="cls-1" d="M94.44,32.38l2,7.73c.44,1.69.85,3.24,1.13,4.83h.1c.33-1.58.84-3.2,1.33-4.86l2.5-7.7h2.33L106.18,40c.56,1.81,1,3.41,1.34,5h.09a47.53,47.53,0,0,1,1.17-5L111,32.38h2.74L108.8,47.54h-2.53L104,40.3a49.27,49.27,0,0,1-1.35-5h-.07a45.73,45.73,0,0,1-1.39,5l-2.45,7.2H96.18L91.6,32.38Z"/><path id="a-2" class="cls-1" d="M126.3,43.89a22.17,22.17,0,0,0,.24,3.65H124l-.22-1.92h-.09A5.67,5.67,0,0,1,119,47.88a4.31,4.31,0,0,1-4.64-4v-.44c0-3.66,3.26-5.66,9.14-5.64v-.31c0-1.26-.34-3.52-3.45-3.52a7.28,7.28,0,0,0-4,1.13l-.59-1.77a9.3,9.3,0,0,1,5-1.36c4.65,0,5.78,3.18,5.78,6.23v5.67Zm-2.68-4.1c-3-.07-6.44.47-6.44,3.4a2.45,2.45,0,0,0,2.23,2.65h.38a3.74,3.74,0,0,0,3.67-2.55,2.92,2.92,0,0,0,.16-.89Z"/><path id="y" class="cls-1" d="M130.78,32.38l3.33,9c.35,1,.73,2.2,1,3.12h.07c.27-.91.59-2.08,1-3.18l3-8.91h2.92l-4.18,10.77c-1.74,4.56-3.13,7.29-5.22,9.1a7.43,7.43,0,0,1-3.4,1.8l-.68-2.32A7.06,7.06,0,0,0,131,50.36a8.43,8.43,0,0,0,2.33-3.08,2.05,2.05,0,0,0,.22-.66,2.58,2.58,0,0,0-.19-.71l-5.62-13.53Z"/><g id="_" data-name=" "><path class="cls-1" d="M148.5,34a2.05,2.05,0,1,1-2.1-2h.1A2,2,0,0,1,148.5,34Zm-3.58,0a1.52,1.52,0,0,0,1.48,1.57h.07A1.53,1.53,0,0,0,148,34.09h0V34a1.55,1.55,0,0,0-1.47-1.63h0A1.5,1.5,0,0,0,145,33.85v0h0Zm1.23,1h-.47V33a2.48,2.48,0,0,1,.77-.06.9.9,0,0,1,.67.15.47.47,0,0,1,.21.43.54.54,0,0,1-.41.48h0c.2.06.29.21.36.48a1.41,1.41,0,0,0,.15.48h-.49a2.21,2.21,0,0,1-.15-.48c0-.21-.16-.31-.42-.31h-.23V35Zm0-1.12h.22c.25,0,.46-.08.46-.28s-.13-.31-.43-.31a.53.53,0,0,0-.25,0v.59Z"/></g></g></svg>