<svg id="Layer_2" data-name="Layer 2" xmlns="http://www.w3.org/2000/svg" viewBox="0 0 148.5 27.7"><defs><style>.cls-1{fill:#fff;}</style></defs><title>Artboard 1</title><g id="HomeAway_" data-name="HomeAway "><path id="H" class="cls-1" d="M2.68.41V9.1H12.73V.41h2.72V21.18H12.73V11.44h-10v9.74H0V.41Z"/><path id="o" class="cls-1" d="M32.76,13.59c0,5.52-3.82,7.92-7.42,7.92-4,0-7.15-3-7.15-7.67,0-5,3.27-7.92,7.4-7.92C29.87,5.93,32.76,9,32.76,13.59Zm-11.82.15c0,3.28,1.88,5.74,4.53,5.74S30,17,30,13.68C30,11.15,28.74,8,25.54,8S20.94,10.92,20.94,13.74Z"/><path id="m" class="cls-1" d="M35.46,10.3c0-1.54,0-2.8-.12-4h2.37l.12,2.4h.09A5.16,5.16,0,0,1,42.61,6a4.41,4.41,0,0,1,4.23,3h.06a6.21,6.21,0,0,1,1.67-2,5.11,5.11,0,0,1,3.29-1c2,0,4.9,1.29,4.9,6.47v8.79H54.1V12.74c0-2.86-1.05-4.59-3.24-4.59a3.5,3.5,0,0,0-3.2,2.47A4.62,4.62,0,0,0,47.45,12v9.2H44.8V12.25c0-2.37-1-4.1-3.12-4.1a3.73,3.73,0,0,0-3.36,2.7,3.69,3.69,0,0,0-.21,1.32v9H35.46Z"/><path id="e" class="cls-1" d="M62,14.1c.07,3.74,2.45,5.28,5.22,5.28a9.85,9.85,0,0,0,4.22-.79l.46,2a12.27,12.27,0,0,1-5,1c-4.68,0-7.48-3.1-7.48-7.7s2.71-8.2,7.14-8.2c5,0,6.29,4.36,6.29,7.16,0,.57-.07,1-.09,1.28H62Zm8.1-2c0-1.76-.71-4.49-3.83-4.49-2.8,0-4,2.57-4.24,4.49Z"/><path id="A" class="cls-1" d="M79,14.52l-2.2,6.66H74L81.19,0h3.3l7.23,21.18H88.79l-2.26-6.66Zm7-2.14-2.07-6.1c-.48-1.38-.78-2.64-1.1-3.87h-.07C82.45,3.67,82.1,5,81.7,6.25l-2.08,6.13Z"/><path id="w" class="cls-1" d="M94.44,6l2,7.73c.44,1.71.85,3.26,1.13,4.85h.1C98,17,98.51,15.38,99,13.7L101.5,6h2.33l2.35,7.61c.56,1.83,1,3.43,1.34,5h.09a46.81,46.81,0,0,1,1.17-4.95L111,6h2.74L108.8,21.18h-2.53L104,13.92a47.9,47.9,0,0,1-1.35-5h-.07a45.73,45.73,0,0,1-1.39,5l-2.45,7.22H96.18L91.6,6Z"/><path id="a-2" class="cls-1" d="M126.3,17.53a22.31,22.31,0,0,0,.24,3.65H124l-.22-1.92h-.09A5.73,5.73,0,0,1,119,21.52a4.32,4.32,0,0,1-4.64-4v-.41c0-3.68,3.26-5.68,9.14-5.66v-.31c0-1.26-.34-3.52-3.45-3.52a7.45,7.45,0,0,0-4,1.13L115.46,7a9.47,9.47,0,0,1,5-1.36c4.65,0,5.78,3.18,5.78,6.23v5.69Zm-2.68-4.12c-3-.07-6.44.47-6.44,3.42a2.46,2.46,0,0,0,2.25,2.65h.36a3.77,3.77,0,0,0,3.67-2.55,3,3,0,0,0,.16-.89Z"/><path id="y" class="cls-1" d="M130.78,6l3.33,9c.35,1,.73,2.2,1,3.12h.07c.27-.91.59-2.08,1-3.18l3-8.93h2.92L137.92,16.8c-1.74,4.56-3.13,7.29-5.22,9.1a7.62,7.62,0,0,1-3.4,1.8l-.68-2.32A7.38,7.38,0,0,0,131,24a8.51,8.51,0,0,0,2.33-3.08,2.23,2.23,0,0,0,.22-.66,2.58,2.58,0,0,0-.19-.71L127.74,6Z"/><g id="_" data-name=" "><path class="cls-1" d="M148.5,7.61a2.05,2.05,0,1,1-2.1-2h.1A2,2,0,0,1,148.5,7.61Zm-3.58,0a1.54,1.54,0,0,0,1.49,1.59h.06A1.52,1.52,0,0,0,148,7.71h0V7.63A1.56,1.56,0,0,0,146.53,6h0A1.52,1.52,0,0,0,145,7.5v0Zm1.23,1h-.47v-2a4.9,4.9,0,0,1,.77-.06,1,1,0,0,1,.67.15.49.49,0,0,1,.21.43.54.54,0,0,1-.41.48h0c.2.06.29.21.36.48a1.34,1.34,0,0,0,.15.48h-.49a1.92,1.92,0,0,1-.15-.48c0-.21-.16-.31-.42-.31h-.23v.83Zm0-1.12h.22c.25,0,.46-.08.46-.28s-.13-.31-.43-.31a1,1,0,0,0-.25,0v.59Z"/></g></g></svg>