<svg id="Layer_1" data-name="Layer 1" xmlns="http://www.w3.org/2000/svg" viewBox="0 0 148.5 80.45"><defs><style>.cls-1{fill:#ed1c24;}.cls-2{fill:#231f20;}</style></defs><title>Artboard 1</title><polygon class="cls-1" points="19.76 22.73 31.34 22.73 31.34 50.38 19.76 22.73"/><polygon class="cls-1" points="11.59 22.73 0 22.73 0 50.38 11.59 22.73"/><polygon class="cls-1" points="15.68 32.91 23.06 50.37 18.22 50.37 16.01 44.8 10.61 44.8 15.68 32.91"/><path class="cls-2" d="M48.9,41.5l-3,8.7a.29.29,0,0,1-.32.26h-3.1c-.25,0-.29-.13-.25-.35,2.4-6.58,6.4-17.92,9.12-25.26a6.64,6.64,0,0,0,.25-1.77.23.23,0,0,1,.19-.26h4.36c.17,0,.22,0,.26.22,3.2,8.8,6.58,18.22,9.79,27.07.08.22,0,.35-.17.35H62.61c-.17,0-.25-.09-.3-.26l-3.12-8.7Zm9.45-2.85c-.88-2.83-3.5-9.93-4.35-12.8h0c-.67,2.67-2.74,8.19-4.3,12.8Z"/><path class="cls-2" d="M67.14,40.32c0-6.19,4.39-10.71,11.06-10.71a8.9,8.9,0,0,1,3.2.42V20.92a.22.22,0,0,1,.18-.25h3.21c.21,0,.26.09.26.25V46.5a15.7,15.7,0,0,0,.08,2.06c0,.17,0,.3-.21.38a16.23,16.23,0,0,1-7.51,1.82C71.53,50.78,67.14,47.33,67.14,40.32ZM81.37,33a6.49,6.49,0,0,0-3.26-.72c-4.55,0-7.2,3.2-7.2,7.92,0,5.74,3.46,7.81,6.87,7.81a7.8,7.8,0,0,0,3.56-.67Z"/><path class="cls-2" d="M107.66,40.16c0,6.49-3.92,10.62-9.66,10.62-7,0-9.79-5.36-9.79-10.58,0-6.07,3.84-10.59,9.84-10.59S107.66,34,107.66,40.16ZM92,40.12c0,4.63,2.15,8,6.12,8,3,0,5.82-2.28,5.82-7.89,0-4.34-1.77-8-6.08-8C94.33,32.27,92,35.23,92,40.12Z"/><path class="cls-2" d="M114.33,20.67c.22,0,.3,0,.3.25v9.75a10.6,10.6,0,0,1,4.85-1.1c5.74,0,9.33,4.14,9.33,10,0,7.37-5.06,11.09-10.81,11.09a15.83,15.83,0,0,1-6.85-1.39.33.33,0,0,1-.26-.34v-28a.22.22,0,0,1,.18-.25h3.26Zm4.52,11.72a8.43,8.43,0,0,0-4.22,1.12V47.37a8,8,0,0,0,3.63.8c3.5,0,6.75-2.45,6.75-8.18C125,35.23,122.77,32.39,118.85,32.39Z"/><path class="cls-2" d="M134.74,40.5c-.13,4.43,2.19,7.47,6.88,7.47a11.23,11.23,0,0,0,5.19-1.1c.13-.09.21,0,.21.17v2.19c0,.21,0,.3-.21.38a12.44,12.44,0,0,1-5.91,1.22c-7.39,0-9.91-5.19-9.91-10.4,0-5.89,3.41-10.71,9.31-10.71,6.08,0,8.2,4.64,8.2,8.27a13.08,13.08,0,0,1-.13,2.07.32.32,0,0,1-.34.28c-.63.08-2.45.17-4.35.17Zm7.51-2.27a19.56,19.56,0,0,0,2.65-.08,4.82,4.82,0,0,0,0-.76c0-2-1-5.15-4.8-5.15-3.33,0-5.06,2.82-5.36,6Z"/></svg>