<svg id="Layer_1" data-name="Layer 1" xmlns="http://www.w3.org/2000/svg" viewBox="0 0 148.5 80.45"><title>Artboard 1</title><g id="layer1"><path id="path4061" d="M44.81,27.11A14.43,14.43,0,0,0,39,28l-.3.11,1.66,3,.2-.07a11.61,11.61,0,0,1,4.71-.62h2.48c3.62,0,5.7,1.8,5.7,5v9.68c0,3.17-2.08,5-5.7,5h-4c-3.71,0-5.53-1.49-5.53-4.58S40,41,43.73,41h5.62v-3.3H43.52c-5.52,0-8.68,2.86-8.68,7.84,0,4.82,3.33,7.83,8.68,7.83h4.36c6.08,0,8.87-4.06,8.87-7.83V34.92c0-3.81-2.77-7.81-8.87-7.81Zm24.53,0c-6.09,0-8.87,4-8.87,7.81V45.51c0,3.77,2.78,7.83,8.87,7.83H73.1c3.08,0,5.12-.45,6.75-1.51l.2-.15-1.89-2.75-.2.17c-1.21.74-2.75,1-5.28,1h-3.2c-3.67,0-5.69-1.76-5.69-5V35.34c0-3.23,2-5,5.69-5h3.2a10.27,10.27,0,0,1,5.28,1l.2.12,1.89-2.77-.2-.13c-1.63-1-3.66-1.45-6.75-1.45Zm21.71,0c-6.11,0-8.9,4-8.9,7.81V45.51c0,3.77,2.78,7.83,8.87,7.83h4.36c6.09,0,8.85-4.06,8.85-7.83V34.92c0-3.81-2.78-7.81-8.9-7.81Zm25.74.05c-5.25,0-8.65,3-8.65,7.58V53.22h3.33V35.16c0-3.19,1.78-4.75,5.47-4.75,3.5,0,5.43,1.59,5.43,4.46V53.22h3.3V34.87c0-2.87,1.92-4.46,5.42-4.46,3.7,0,5.51,1.56,5.51,4.75V53.22H140V34.74c0-4.63-3.45-7.58-8.7-7.58-3.5,0-5.62.87-7.23,3C122.42,28,120.29,27.16,116.79,27.16ZM0,27.28V45.76c0,4.6,3.39,7.58,8.65,7.58,3.5,0,5.62-.86,7.23-3,1.62,2.09,3.74,3,7.24,3,5.23,0,8.63-3,8.63-7.58V27.28h-3.3V45.34c0,3.19-1.81,4.73-5.48,4.73-3.5,0-5.43-1.57-5.43-4.44V27.28H14.25V45.63c0,2.87-1.93,4.44-5.43,4.44-3.69,0-5.5-1.54-5.5-4.73V27.28Zm146,0a2.39,2.39,0,0,0-1.78.75,2.44,2.44,0,0,0-.74,1.78,2.51,2.51,0,0,0,.74,1.81,2.52,2.52,0,0,0,3.57,0,2.51,2.51,0,0,0,.74-1.81A2.55,2.55,0,0,0,146,27.28Zm0,.35a2.08,2.08,0,0,1,1.54.64,2.18,2.18,0,0,1-3,3.14h0a2.1,2.1,0,0,1-.65-1.53,2.15,2.15,0,0,1,.65-1.57A2.07,2.07,0,0,1,146,27.63Zm-1,.79V31.2h.47V30.11h.39a1,1,0,0,1,.55.1c.17.1.25.29.25.62v.32h.47V30.6a.66.66,0,0,0-.15-.42.61.61,0,0,0-.47-.27,1.42,1.42,0,0,0,.4-.12.66.66,0,0,0,.27-.57.69.69,0,0,0-.44-.7,2.12,2.12,0,0,0-.75-.1Zm.47.33h.42a1.2,1.2,0,0,1,.59.12.41.41,0,0,1,.2.4.43.43,0,0,1-.3.44,1.85,1.85,0,0,1-.47,0h-.44ZM91.17,30.36h4c3.62,0,5.7,1.8,5.7,5V45.1c0,3.17-2.08,5-5.7,5h-4c-3.68,0-5.7-1.76-5.7-5V35.34C85.47,32.16,87.55,30.36,91.17,30.36Z"/></g></svg>