<svg id="Layer_1" data-name="Layer 1" xmlns="http://www.w3.org/2000/svg" viewBox="0 0 140 652.58"><defs><style>.cls-1{fill:#4fb0a1;}.cls-2{fill:#dfe2d5;}.cls-3{fill:#2055b9;}.cls-4{fill:#dc3f2e;}.cls-5{fill:#f1ae3f;}</style></defs><title>Artboard 1</title><rect class="cls-1" y="233.33" width="46.67" height="46.67"/><rect class="cls-2" x="46.67" y="233.33" width="46.67" height="46.67"/><rect class="cls-1" x="93.33" y="233.33" width="46.67" height="46.67"/><rect class="cls-1" y="420" width="140" height="92.58"/><rect class="cls-3" width="93.33" height="93.33"/><rect class="cls-2" x="13.67" y="13.67" width="66" height="66" transform="translate(-19.33 46.67) rotate(-45)"/><rect class="cls-2" x="93.33" width="46.67" height="93.33"/><polygon points="93.33 0 93.33 93.33 140 46.67 93.33 0"/><rect class="cls-2" y="93.33" width="140" height="140"/><path class="cls-4" d="M70,93.33a70,70,0,1,0,70,70A70,70,0,0,0,70,93.33Z"/><circle class="cls-5" cx="70" cy="163.33" r="42"/><rect class="cls-2" y="280" width="140" height="140"/><rect x="20.5" y="300.5" width="98.99" height="98.99" transform="translate(-226.98 152.01) rotate(-45)"/><polygon points="0 652.58 0 512.58 140 512.58 0 652.58"/><path class="cls-5" d="M70,512.58a70,70,0,1,0,70,70A70,70,0,0,0,70,512.58Zm0,30.74a39.27,39.27,0,0,1,37.85,28.83H32.15A39.27,39.27,0,0,1,70,543.32Zm0,78.51A39.28,39.28,0,0,1,32.15,593h75.7A39.28,39.28,0,0,1,70,621.83Z"/><polygon class="cls-3" points="140 512.58 140 652.58 0 652.58 140 512.58"/></svg>